<?xml version="1.0" encoding="utf-8"?>
<!-- Generator: Adobe Illustrator 25.4.0, SVG Export Plug-In . SVG Version: 6.00 Build 0)  -->
<svg version="1.1" id="Layer_1" xmlns="http://www.w3.org/2000/svg" xmlns:xlink="http://www.w3.org/1999/xlink" x="0px" y="0px"
	 viewBox="0 0 531.16 220.87" style="enable-background:new 0 0 531.16 220.87;" xml:space="preserve">
<style type="text/css">
	.st0{fill:#CE0B0B;}
</style>
<g>
	<path d="M447.63,46.8H340.75c-37.22,0-67.38,30.17-67.38,67.38v0c0,3.39,0.25,6.71,0.74,9.96c0.2,1.36-0.85,2.58-2.22,2.58H242.5
		c-1.32,0-2.46-0.9-2.79-2.17c-4.53-17.5-20.42-30.42-39.34-30.42L73.93,92.95l0.68-11.58h154.63V46.8H30.42l-6.86,45.67
		l-4.91,32.42h49.93c1.69-2.65,4.64-4.41,8.01-4.41h102.1c5.25,0,9.5,4.25,9.5,9.5v5.51c0,5.25-4.25,9.5-9.5,9.5H76.59
		c-3.82,0-7.11-2.26-8.62-5.51H17.21c1.7,23.55,18.11,38.65,42.6,38.65l133.71,3.42c10.09,0,19.43-3.05,27.12-8.29
		c0.96-0.65,2.26,0.02,2.26,1.18v5.36c0,0.97,0.78,1.75,1.75,1.75h71.06c0.97,0,1.75-0.78,1.75-1.75v-10.6
		c0-1.35,1.55-2.14,2.62-1.32c11.31,8.58,25.4,13.67,40.68,13.67h106.88c37.22,0,67.38-30.17,67.38-67.38v0
		C515.02,76.97,484.85,46.8,447.63,46.8z M463.7,114.31c0,17.81-14.44,32.26-32.26,32.26h-70.99c-17.81,0-32.26-14.44-32.26-32.26v0
		c0-17.81,14.44-32.26,32.26-32.26h70.99C449.26,82.06,463.7,96.5,463.7,114.31L463.7,114.31z"/>
	<rect x="241" y="143.05" class="st0" width="38.16" height="21.28"/>
</g>
</svg>
